<mxfile host="app.diagrams.net" modified="2024-06-26T13:02:48.938Z" agent="Mozilla/5.0 (X11; Linux x86_64) AppleWebKit/537.36 (KHTML, like Gecko) Chrome/126.0.0.0 Safari/537.36" version="24.6.3" etag="vR-P-GYQVesZKEqfeD2k" type="github">
  <diagram name="Page-1" id="JoyaNZ-vbb8n5kpcvQIH">
    <mxGraphModel>
      <root>
        <mxCell id="0" />
        <mxCell id="1" parent="0" />
        <mxCell id="2" value="Customer" style="swimlane;fontStyle=1;align=center;verticalAlign=top;childLayout=stackLayout;horizontal=1;startSize=24;horizontalStack=0;resizeParent=1;resizeParentMax=0;resizeLast=0;collapsible=0;marginBottom=0;" vertex="1" parent="1">
          <mxGeometry x="110" y="8" width="128" height="140" as="geometry" />
        </mxCell>
        <mxCell id="3" style="line;strokeWidth=1;fillColor=none;align=left;verticalAlign=middle;spacingTop=-1;spacingLeft=3;spacingRight=3;rotatable=0;labelPosition=right;points=[];portConstraint=eastwest;strokeColor=inherit;" vertex="1" parent="2">
          <mxGeometry y="36" width="128" height="8" as="geometry" />
        </mxCell>
        <mxCell id="4" value="+login()" style="text;strokeColor=none;fillColor=none;align=left;verticalAlign=top;spacingLeft=4;spacingRight=4;overflow=hidden;rotatable=0;points=[[0,0.5],[1,0.5]];portConstraint=eastwest;" vertex="1" parent="2">
          <mxGeometry y="44" width="128" height="24" as="geometry" />
        </mxCell>
        <mxCell id="5" value="+signup()" style="text;strokeColor=none;fillColor=none;align=left;verticalAlign=top;spacingLeft=4;spacingRight=4;overflow=hidden;rotatable=0;points=[[0,0.5],[1,0.5]];portConstraint=eastwest;" vertex="1" parent="2">
          <mxGeometry y="68" width="128" height="24" as="geometry" />
        </mxCell>
        <mxCell id="6" value="+viewProduct()" style="text;strokeColor=none;fillColor=none;align=left;verticalAlign=top;spacingLeft=4;spacingRight=4;overflow=hidden;rotatable=0;points=[[0,0.5],[1,0.5]];portConstraint=eastwest;" vertex="1" parent="2">
          <mxGeometry y="92" width="128" height="24" as="geometry" />
        </mxCell>
        <mxCell id="7" value="+orderProduct()" style="text;strokeColor=none;fillColor=none;align=left;verticalAlign=top;spacingLeft=4;spacingRight=4;overflow=hidden;rotatable=0;points=[[0,0.5],[1,0.5]];portConstraint=eastwest;" vertex="1" parent="2">
          <mxGeometry y="116" width="128" height="24" as="geometry" />
        </mxCell>
        <mxCell id="8" value="Vendor" style="swimlane;fontStyle=1;align=center;verticalAlign=top;childLayout=stackLayout;horizontal=1;startSize=24.666666666666668;horizontalStack=0;resizeParent=1;resizeParentMax=0;resizeLast=0;collapsible=0;marginBottom=0;" vertex="1" parent="1">
          <mxGeometry x="185" y="215" width="138" height="119" as="geometry" />
        </mxCell>
        <mxCell id="9" style="line;strokeWidth=1;fillColor=none;align=left;verticalAlign=middle;spacingTop=-1;spacingLeft=3;spacingRight=3;rotatable=0;labelPosition=right;points=[];portConstraint=eastwest;strokeColor=inherit;" vertex="1" parent="8">
          <mxGeometry y="37" width="138" height="8" as="geometry" />
        </mxCell>
        <mxCell id="10" value="+login()" style="text;strokeColor=none;fillColor=none;align=left;verticalAlign=top;spacingLeft=4;spacingRight=4;overflow=hidden;rotatable=0;points=[[0,0.5],[1,0.5]];portConstraint=eastwest;" vertex="1" parent="8">
          <mxGeometry y="45" width="138" height="25" as="geometry" />
        </mxCell>
        <mxCell id="11" value="+signup()" style="text;strokeColor=none;fillColor=none;align=left;verticalAlign=top;spacingLeft=4;spacingRight=4;overflow=hidden;rotatable=0;points=[[0,0.5],[1,0.5]];portConstraint=eastwest;" vertex="1" parent="8">
          <mxGeometry y="70" width="138" height="25" as="geometry" />
        </mxCell>
        <mxCell id="12" value="+uploadProduct()" style="text;strokeColor=none;fillColor=none;align=left;verticalAlign=top;spacingLeft=4;spacingRight=4;overflow=hidden;rotatable=0;points=[[0,0.5],[1,0.5]];portConstraint=eastwest;" vertex="1" parent="8">
          <mxGeometry y="94" width="138" height="25" as="geometry" />
        </mxCell>
        <mxCell id="13" value="Application" style="swimlane;fontStyle=1;align=center;verticalAlign=top;childLayout=stackLayout;horizontal=1;startSize=25.714285714285715;horizontalStack=0;resizeParent=1;resizeParentMax=0;resizeLast=0;collapsible=0;marginBottom=0;" vertex="1" parent="1">
          <mxGeometry x="73" y="401" width="223" height="98" as="geometry" />
        </mxCell>
        <mxCell id="14" style="line;strokeWidth=1;fillColor=none;align=left;verticalAlign=middle;spacingTop=-1;spacingLeft=3;spacingRight=3;rotatable=0;labelPosition=right;points=[];portConstraint=eastwest;strokeColor=inherit;" vertex="1" parent="13">
          <mxGeometry y="39" width="223" height="8" as="geometry" />
        </mxCell>
        <mxCell id="15" value="+selectVendorToOrderFrom()" style="text;strokeColor=none;fillColor=none;align=left;verticalAlign=top;spacingLeft=4;spacingRight=4;overflow=hidden;rotatable=0;points=[[0,0.5],[1,0.5]];portConstraint=eastwest;" vertex="1" parent="13">
          <mxGeometry y="47" width="223" height="26" as="geometry" />
        </mxCell>
        <mxCell id="16" value="+showCustomerProducts()" style="text;strokeColor=none;fillColor=none;align=left;verticalAlign=top;spacingLeft=4;spacingRight=4;overflow=hidden;rotatable=0;points=[[0,0.5],[1,0.5]];portConstraint=eastwest;" vertex="1" parent="13">
          <mxGeometry y="72" width="223" height="26" as="geometry" />
        </mxCell>
        <mxCell id="17" value="PlacesOrder" style="curved=1;startArrow=none;endArrow=open;endSize=12;exitX=0.92;exitY=1;entryX=0.5;entryY=0;" edge="1" parent="1" source="2" target="8">
          <mxGeometry relative="1" as="geometry">
            <Array as="points">
              <mxPoint x="254" y="182" />
            </Array>
          </mxGeometry>
        </mxCell>
        <mxCell id="18" value="1" style="edgeLabel;resizable=0;labelBackgroundColor=none;fontSize=12;align=right;verticalAlign=top;" vertex="1" parent="17">
          <mxGeometry x="-1" relative="1" as="geometry" />
        </mxCell>
        <mxCell id="19" value="1..*" style="edgeLabel;resizable=0;labelBackgroundColor=none;fontSize=12;align=left;verticalAlign=bottom;" vertex="1" parent="17">
          <mxGeometry x="1" relative="1" as="geometry" />
        </mxCell>
        <mxCell id="20" value="DisplaysProducts" style="curved=1;startArrow=none;endArrow=open;endSize=12;exitX=0.87;exitY=0;entryX=0.83;entryY=1;" edge="1" parent="1" source="13" target="8">
          <mxGeometry relative="1" as="geometry">
            <Array as="points">
              <mxPoint x="324" y="368" />
            </Array>
          </mxGeometry>
        </mxCell>
        <mxCell id="21" value="1" style="edgeLabel;resizable=0;labelBackgroundColor=none;fontSize=12;align=right;verticalAlign=bottom;" vertex="1" parent="20">
          <mxGeometry x="-1" relative="1" as="geometry" />
        </mxCell>
        <mxCell id="22" value="1..*" style="edgeLabel;resizable=0;labelBackgroundColor=none;fontSize=12;align=left;verticalAlign=top;" vertex="1" parent="20">
          <mxGeometry x="1" relative="1" as="geometry" />
        </mxCell>
        <mxCell id="23" value="UsesApplication" style="curved=1;startArrow=none;endArrow=diamondThin;endSize=14;endFill=0;exitX=0;exitY=0.94;entryX=0.18;entryY=0;" edge="1" parent="1" source="2" target="13">
          <mxGeometry relative="1" as="geometry">
            <Array as="points">
              <mxPoint x="65" y="182" />
              <mxPoint x="65" y="368" />
            </Array>
          </mxGeometry>
        </mxCell>
        <mxCell id="24" value="1" style="edgeLabel;resizable=0;labelBackgroundColor=none;fontSize=12;align=right;verticalAlign=top;" vertex="1" parent="23">
          <mxGeometry x="-1" relative="1" as="geometry" />
        </mxCell>
        <mxCell id="25" value="n" style="edgeLabel;resizable=0;labelBackgroundColor=none;fontSize=12;align=left;verticalAlign=bottom;" vertex="1" parent="23">
          <mxGeometry x="1" relative="1" as="geometry" />
        </mxCell>
        <mxCell id="26" value="UsesApplication" style="curved=1;startArrow=none;endArrow=diamondThin;endSize=14;endFill=0;exitX=0.18;exitY=1;entryX=0.5;entryY=0;" edge="1" parent="1" source="8" target="13">
          <mxGeometry relative="1" as="geometry">
            <Array as="points">
              <mxPoint x="185" y="368" />
            </Array>
          </mxGeometry>
        </mxCell>
        <mxCell id="27" value="1" style="edgeLabel;resizable=0;labelBackgroundColor=none;fontSize=12;align=right;verticalAlign=top;" vertex="1" parent="26">
          <mxGeometry x="-1" relative="1" as="geometry" />
        </mxCell>
        <mxCell id="28" value="n" style="edgeLabel;resizable=0;labelBackgroundColor=none;fontSize=12;align=left;verticalAlign=bottom;" vertex="1" parent="26">
          <mxGeometry x="1" relative="1" as="geometry" />
        </mxCell>
      </root>
    </mxGraphModel>
  </diagram>
</mxfile>
